<mxfile host="app.diagrams.net" modified="2022-02-18T13:17:42.914Z" agent="5.0 (Macintosh; Intel Mac OS X 10_15_7) AppleWebKit/605.1.15 (KHTML, like Gecko) Version/14.1.1 Safari/605.1.15" etag="6ClbPCN48XXd04mNj5QO" version="16.6.1" type="github">
  <diagram id="BYI07DkItZ4Wg5Pd8Vl2" name="Page-1">
    <mxGraphModel dx="946" dy="586" grid="1" gridSize="10" guides="1" tooltips="1" connect="1" arrows="1" fold="1" page="1" pageScale="1" pageWidth="827" pageHeight="1169" math="0" shadow="0">
      <root>
        <mxCell id="0" />
        <mxCell id="1" parent="0" />
        <mxCell id="4cEuBiGKs8VyXFLQCpNC-24" value="" style="group" vertex="1" connectable="0" parent="1">
          <mxGeometry x="300" y="240" width="220" height="100" as="geometry" />
        </mxCell>
        <mxCell id="4cEuBiGKs8VyXFLQCpNC-7" value="" style="aspect=fixed;perimeter=ellipsePerimeter;html=1;align=center;shadow=0;dashed=0;spacingTop=3;image;image=img/lib/active_directory/mainframe_host.svg;fontSize=16;" vertex="1" parent="4cEuBiGKs8VyXFLQCpNC-24">
          <mxGeometry width="51.78082191780822" height="71.91780821917808" as="geometry" />
        </mxCell>
        <mxCell id="4cEuBiGKs8VyXFLQCpNC-10" value="" style="aspect=fixed;perimeter=ellipsePerimeter;html=1;align=center;shadow=0;dashed=0;spacingTop=3;image;image=img/lib/active_directory/mainframe_host.svg;fontSize=16;" vertex="1" parent="4cEuBiGKs8VyXFLQCpNC-24">
          <mxGeometry x="87.3972602739726" width="51.78082191780822" height="71.91780821917808" as="geometry" />
        </mxCell>
        <mxCell id="4cEuBiGKs8VyXFLQCpNC-13" value="" style="aspect=fixed;perimeter=ellipsePerimeter;html=1;align=center;shadow=0;dashed=0;spacingTop=3;image;image=img/lib/active_directory/mainframe_host.svg;fontSize=16;" vertex="1" parent="4cEuBiGKs8VyXFLQCpNC-24">
          <mxGeometry x="165.75342465753425" width="51.78082191780822" height="71.91780821917808" as="geometry" />
        </mxCell>
        <mxCell id="4cEuBiGKs8VyXFLQCpNC-40" value="节点2" style="text;html=1;align=center;verticalAlign=middle;resizable=0;points=[];autosize=1;strokeColor=none;fillColor=none;fontSize=16;fontColor=default;" vertex="1" parent="4cEuBiGKs8VyXFLQCpNC-24">
          <mxGeometry x="79.18" y="80" width="60" height="20" as="geometry" />
        </mxCell>
        <mxCell id="4cEuBiGKs8VyXFLQCpNC-46" value="节点3" style="text;html=1;align=center;verticalAlign=middle;resizable=0;points=[];autosize=1;strokeColor=none;fillColor=none;fontSize=16;fontColor=default;" vertex="1" parent="4cEuBiGKs8VyXFLQCpNC-24">
          <mxGeometry x="160" y="80" width="60" height="20" as="geometry" />
        </mxCell>
        <mxCell id="4cEuBiGKs8VyXFLQCpNC-35" value="请求1" style="edgeStyle=none;rounded=0;orthogonalLoop=1;jettySize=auto;html=1;entryX=0.5;entryY=0;entryDx=0;entryDy=0;fontSize=16;" edge="1" parent="1" source="4cEuBiGKs8VyXFLQCpNC-25" target="4cEuBiGKs8VyXFLQCpNC-7">
          <mxGeometry relative="1" as="geometry" />
        </mxCell>
        <mxCell id="4cEuBiGKs8VyXFLQCpNC-36" value="请求2" style="edgeStyle=none;rounded=0;orthogonalLoop=1;jettySize=auto;html=1;entryX=0.5;entryY=0;entryDx=0;entryDy=0;fontSize=16;" edge="1" parent="1" source="4cEuBiGKs8VyXFLQCpNC-25" target="4cEuBiGKs8VyXFLQCpNC-10">
          <mxGeometry relative="1" as="geometry" />
        </mxCell>
        <mxCell id="4cEuBiGKs8VyXFLQCpNC-37" value="请求3" style="edgeStyle=none;rounded=0;orthogonalLoop=1;jettySize=auto;html=1;entryX=0.5;entryY=0;entryDx=0;entryDy=0;fontSize=16;" edge="1" parent="1" source="4cEuBiGKs8VyXFLQCpNC-25" target="4cEuBiGKs8VyXFLQCpNC-13">
          <mxGeometry relative="1" as="geometry" />
        </mxCell>
        <mxCell id="4cEuBiGKs8VyXFLQCpNC-25" value="&lt;span style=&quot;font-family: &amp;quot;helvetica neue&amp;quot;, helvetica, arial, sans-serif; font-size: 14px;&quot;&gt;负载均衡层&lt;/span&gt;" style="rounded=1;whiteSpace=wrap;html=1;fontSize=16;fillColor=#ffcd28;strokeColor=#d79b00;gradientColor=#ffa500;fontColor=default;labelBackgroundColor=none;" vertex="1" parent="1">
          <mxGeometry x="339.25" y="120" width="130" height="60" as="geometry" />
        </mxCell>
        <mxCell id="4cEuBiGKs8VyXFLQCpNC-32" style="rounded=0;orthogonalLoop=1;jettySize=auto;html=1;fontSize=16;entryX=0.25;entryY=0;entryDx=0;entryDy=0;" edge="1" parent="1" source="4cEuBiGKs8VyXFLQCpNC-29" target="4cEuBiGKs8VyXFLQCpNC-25">
          <mxGeometry relative="1" as="geometry">
            <mxPoint x="380" y="120" as="targetPoint" />
          </mxGeometry>
        </mxCell>
        <mxCell id="4cEuBiGKs8VyXFLQCpNC-29" value="请求1" style="aspect=fixed;perimeter=ellipsePerimeter;html=1;align=center;shadow=0;dashed=0;spacingTop=3;image;image=img/lib/active_directory/user.svg;fontSize=16;" vertex="1" parent="1">
          <mxGeometry x="330" width="18.5" height="50" as="geometry" />
        </mxCell>
        <mxCell id="4cEuBiGKs8VyXFLQCpNC-33" style="edgeStyle=none;rounded=0;orthogonalLoop=1;jettySize=auto;html=1;entryX=0.5;entryY=0;entryDx=0;entryDy=0;fontSize=16;" edge="1" parent="1" source="4cEuBiGKs8VyXFLQCpNC-30" target="4cEuBiGKs8VyXFLQCpNC-25">
          <mxGeometry relative="1" as="geometry" />
        </mxCell>
        <mxCell id="4cEuBiGKs8VyXFLQCpNC-30" value="请求2" style="aspect=fixed;perimeter=ellipsePerimeter;html=1;align=center;shadow=0;dashed=0;spacingTop=3;image;image=img/lib/active_directory/user.svg;fontSize=16;" vertex="1" parent="1">
          <mxGeometry x="395" width="18.5" height="50" as="geometry" />
        </mxCell>
        <mxCell id="4cEuBiGKs8VyXFLQCpNC-34" style="edgeStyle=none;rounded=0;orthogonalLoop=1;jettySize=auto;html=1;entryX=0.75;entryY=0;entryDx=0;entryDy=0;fontSize=16;" edge="1" parent="1" source="4cEuBiGKs8VyXFLQCpNC-31" target="4cEuBiGKs8VyXFLQCpNC-25">
          <mxGeometry relative="1" as="geometry" />
        </mxCell>
        <mxCell id="4cEuBiGKs8VyXFLQCpNC-31" value="请求3" style="aspect=fixed;perimeter=ellipsePerimeter;html=1;align=center;shadow=0;dashed=0;spacingTop=3;image;image=img/lib/active_directory/user.svg;fontSize=16;" vertex="1" parent="1">
          <mxGeometry x="460" width="18.5" height="50" as="geometry" />
        </mxCell>
        <mxCell id="4cEuBiGKs8VyXFLQCpNC-39" value="节点1" style="text;html=1;align=center;verticalAlign=middle;resizable=0;points=[];autosize=1;strokeColor=none;fillColor=none;fontSize=16;fontColor=default;" vertex="1" parent="1">
          <mxGeometry x="288.5" y="320" width="60" height="20" as="geometry" />
        </mxCell>
      </root>
    </mxGraphModel>
  </diagram>
</mxfile>
